Results
version=1
nRows=4
nColumns=213
inDegrees=yes
endheader
time	platform_rx	platform_ry	platform_rz	platform_ty	pelvis_tilt	pelvis_list	pelvis_rotation	pelvis_tx	pelvis_ty	pelvis_tz	hip_flexion_r	hip_adduction_r	hip_rotation_r	knee_angle_r	knee_angle_r_beta	ankle_angle_r	subtalar_angle_r	mtp_angle_r	hip_flexion_l	hip_adduction_l	hip_rotation_l	knee_angle_l	knee_angle_l_beta	ankle_angle_l	subtalar_angle_l	mtp_angle_l	lumbar_extension	lumbar_bending	lumbar_rotation	arm_flex_r	arm_add_r	arm_rot_r	elbow_flex_r	pro_sup_r	wrist_flex_r	wrist_dev_r	arm_flex_l	arm_add_l	arm_rot_l	elbow_flex_l	pro_sup_l	wrist_flex_l	wrist_dev_l	platform_rx_u	platform_ry_u	platform_rz_u	platform_ty_u	pelvis_tilt_u	pelvis_list_u	pelvis_rotation_u	pelvis_tx_u	pelvis_ty_u	pelvis_tz_u	hip_flexion_r_u	hip_adduction_r_u	hip_rotation_r_u	knee_angle_r_u	knee_angle_r_beta_u	ankle_angle_r_u	subtalar_angle_r_u	mtp_angle_r_u	hip_flexion_l_u	hip_adduction_l_u	hip_rotation_l_u	knee_angle_l_u	knee_angle_l_beta_u	ankle_angle_l_u	subtalar_angle_l_u	mtp_angle_l_u	lumbar_extension_u	lumbar_bending_u	lumbar_rotation_u	arm_flex_r_u	arm_add_r_u	arm_rot_r_u	elbow_flex_r_u	pro_sup_r_u	wrist_flex_r_u	wrist_dev_r_u	arm_flex_l_u	arm_add_l_u	arm_rot_l_u	elbow_flex_l_u	pro_sup_l_u	wrist_flex_l_u	wrist_dev_l_u	addbrev_r.activation	addlong_r.activation	addlong_r.fiber_length	addmagDist_r.activation	addmagIsch_r.activation	addmagIsch_r.fiber_length	addmagMid_r.activation	addmagProx_r.activation	bflh_r.activation	bflh_r.fiber_length	bfsh_r.activation	edl_r.activation	edl_r.fiber_length	ehl_r.activation	ehl_r.fiber_length	fdl_r.activation	fdl_r.fiber_length	fhl_r.activation	fhl_r.fiber_length	gaslat_r.activation	gaslat_r.fiber_length	gasmed_r.activation	gasmed_r.fiber_length	glmax1_r.activation	glmax2_r.activation	glmax3_r.activation	glmed1_r.activation	glmed2_r.activation	glmed3_r.activation	glmin1_r.activation	glmin2_r.activation	glmin3_r.activation	glmin3_r.fiber_length	grac_r.activation	iliacus_r.activation	perbrev_r.activation	perbrev_r.fiber_length	perlong_r.activation	perlong_r.fiber_length	piri_r.activation	piri_r.fiber_length	psoas_r.activation	recfem_r.activation	recfem_r.fiber_length	sart_r.activation	semimem_r.activation	semimem_r.fiber_length	semiten_r.activation	semiten_r.fiber_length	soleus_r.activation	soleus_r.fiber_length	tfl_r.activation	tfl_r.fiber_length	tibant_r.activation	tibant_r.fiber_length	tibpost_r.activation	tibpost_r.fiber_length	vasint_r.activation	vasint_r.fiber_length	vaslat_r.activation	vaslat_r.fiber_length	vasmed_r.activation	vasmed_r.fiber_length	addbrev_l.activation	addlong_l.activation	addlong_l.fiber_length	addmagDist_l.activation	addmagIsch_l.activation	addmagIsch_l.fiber_length	addmagMid_l.activation	addmagProx_l.activation	bflh_l.activation	bflh_l.fiber_length	bfsh_l.activation	edl_l.activation	edl_l.fiber_length	ehl_l.activation	ehl_l.fiber_length	fdl_l.activation	fdl_l.fiber_length	fhl_l.activation	fhl_l.fiber_length	gaslat_l.activation	gaslat_l.fiber_length	gasmed_l.activation	gasmed_l.fiber_length	glmax1_l.activation	glmax2_l.activation	glmax3_l.activation	glmed1_l.activation	glmed2_l.activation	glmed3_l.activation	glmin1_l.activation	glmin2_l.activation	glmin3_l.activation	glmin3_l.fiber_length	grac_l.activation	iliacus_l.activation	perbrev_l.activation	perbrev_l.fiber_length	perlong_l.activation	perlong_l.fiber_length	piri_l.activation	piri_l.fiber_length	psoas_l.activation	recfem_l.activation	recfem_l.fiber_length	sart_l.activation	semimem_l.activation	semimem_l.fiber_length	semiten_l.activation	semiten_l.fiber_length	soleus_l.activation	soleus_l.fiber_length	tfl_l.activation	tfl_l.fiber_length	tibant_l.activation	tibant_l.fiber_length	tibpost_l.activation	tibpost_l.fiber_length	vasint_l.activation	vasint_l.fiber_length	vaslat_l.activation	vaslat_l.fiber_length	vasmed_l.activation	vasmed_l.fiber_length
      0.00000000	     20.00000000	      0.00000000	      0.00000000	      0.25000000	    -28.10299868	      0.00000000	      0.00000000	     -0.03600000	      0.54200000	      0.00000000	    103.99999107	    -18.06296806	      0.47400002	    106.00001949	    106.00001949	     30.99999223	      0.00000000	      0.00000000	    103.99999134	    -18.06296472	      0.47400004	    106.00002147	    106.00002147	     30.99999238	      0.00000000	      0.00000000	      0.00000000	      0.00000000	      0.00000000	     89.94068892	     -0.00003004	     89.83345098	      0.15057401	      0.15053325	      0.00000000	      0.00000000	     89.94074537	     -0.00002785	     89.82575129	      0.15057401	      0.15053325	      0.00000000	      0.00000000	      0.00000000	      0.00000000	      0.00000000	      0.00000000	      0.00000000	      0.00000000	      0.00000000	      0.00000000	      0.00000000	      0.00000000	      0.00000000	      0.00000000	      0.00000000	      0.00000000	      0.00000000	      0.00000000	      0.00000000	      0.00000000	      0.00000000	      0.00000000	      0.00000000	      0.00000000	      0.00000000	      0.00000000	      0.00000000	      0.00000000	      0.00000000	      0.00000000	      0.00000000	      0.00000000	      0.00000000	      0.00000000	      0.00000000	      0.00000000	      0.00000000	      0.00000000	      0.00000000	      0.00000000	      0.00000000	      0.00000000	      0.00000000	      0.00000000	      0.00000000	      0.01000000	      0.01000000	      0.10254260	      0.01000000	      0.01000000	      0.22480509	      0.01000000	      0.01000000	      0.01000000	      0.12260001	      0.01000000	      0.01000000	      0.05013408	      0.01000000	      0.05742057	      0.01000000	      0.04769980	      0.01000000	      0.05653125	      0.01000000	      0.05109003	      0.01000000	      0.03772337	      0.01000000	      0.01000000	      0.01000000	      0.01000000	      0.01000000	      0.01000000	      0.01000000	      0.01000000	      0.01000000	      0.04422821	      0.01000000	      0.01000000	      0.01000000	      0.05088891	      0.01000000	      0.05766620	      0.01000000	      0.03318452	      0.01000000	      0.01000000	      0.05086756	      0.01000000	      0.01000000	      0.07757426	      0.01000000	      0.22948999	      0.01000000	      0.06195975	      0.01000000	      0.02401565	      0.01000000	      0.04347030	      0.01000000	      0.04217418	      0.01000000	      0.13912166	      0.01000000	      0.13557884	      0.01000000	      0.13288681	      0.01000000	      0.01000000	      0.10254260	      0.01000000	      0.01000000	      0.22480509	      0.01000000	      0.01000000	      0.01000000	      0.12260001	      0.01000000	      0.01000000	      0.05013408	      0.01000000	      0.05742057	      0.01000000	      0.04769980	      0.01000000	      0.05653125	      0.01000000	      0.05109003	      0.01000000	      0.03772337	      0.01000000	      0.01000000	      0.01000000	      0.01000000	      0.01000000	      0.01000000	      0.01000000	      0.01000000	      0.01000000	      0.04422821	      0.01000000	      0.01000000	      0.01000000	      0.05088891	      0.01000000	      0.05766620	      0.01000000	      0.03318453	      0.01000000	      0.01000000	      0.05086756	      0.01000000	      0.01000000	      0.07757426	      0.01000000	      0.22948998	      0.01000000	      0.06195975	      0.01000000	      0.02401565	      0.01000000	      0.04347030	      0.01000000	      0.04217418	      0.01000000	      0.13912166	      0.01000000	      0.13557884	      0.01000000	      0.13288681
      0.00068257	     20.00000000	     -0.00000000	      0.00000000	      0.25000000	    -28.09676395	     -0.00000000	     -0.00000000	     -0.03599887	      0.54200871	     -0.00000000	    103.99380410	    -18.06337072	      0.47539605	    105.99941103	    105.99941103	     30.95540563	      0.00000000	      0.00000000	    103.99380437	    -18.06336738	      0.47539607	    105.99941300	    105.99941300	     30.95540577	     -0.00000000	      0.00000000	     -0.00786289	      0.00000000	      0.00000000	     89.94244589	     -0.00011095	     89.83339668	      0.15080046	      0.15057233	     -0.00000000	     -0.00000000	     89.94250233	     -0.00010875	     89.82569699	      0.15080043	      0.15057233	     -0.00000000	      0.00000000	     -0.00000000	     -0.00000000	     -0.00000000	     -0.00000000	     18.26451912	     -0.00000221	     -0.00000035	      0.00331203	      0.02551532	     -0.00000000	    -18.13033701	     -1.17961621	      4.08414983	     -1.79229200	     -1.79229200	   -130.48222312	      0.00000000	      0.00000000	    -18.13033456	     -1.17961527	      4.08415513	     -1.79229144	     -1.79229144	   -130.48222396	     -0.00000000	      0.00000000	    -23.03427855	      0.00000280	      0.00000007	      5.14677234	     -0.23698399	     -0.15896922	      0.66324022	      0.11422500	     -0.00000000	     -0.00000000	      5.14673119	     -0.23695427	     -0.15897350	      0.66314052	      0.11424198	     -0.00000000	      0.00000000	      0.01000000	      0.01000000	      0.10254215	      0.01000000	      0.01000000	      0.22480286	      0.01000000	      0.01000000	      0.01000000	      0.12259960	      0.01000000	      0.01000000	      0.05013595	      0.01000000	      0.05742300	      0.01000000	      0.04769972	      0.01000000	      0.05653092	      0.01000000	      0.05108868	      0.01000000	      0.03772220	      0.01000000	      0.01000000	      0.01000000	      0.01000000	      0.01000000	      0.01000000	      0.01000000	      0.01000000	      0.01000000	      0.04422772	      0.01000000	      0.01000000	      0.01000000	      0.05088860	      0.01000000	      0.05766588	      0.01000000	      0.03318426	      0.01000000	      0.01000000	      0.05086774	      0.01000000	      0.01000000	      0.07757407	      0.01000000	      0.22948903	      0.01000000	      0.06195621	      0.01000000	      0.02401564	      0.01000000	      0.04347402	      0.01000000	      0.04217401	      0.01000000	      0.13912158	      0.01000000	      0.13557877	      0.01000000	      0.13288675	      0.01000000	      0.01000000	      0.10254214	      0.01000000	      0.01000000	      0.22480286	      0.01000000	      0.01000000	      0.01000000	      0.12259960	      0.01000000	      0.01000000	      0.05013595	      0.01000000	      0.05742300	      0.01000000	      0.04769972	      0.01000000	      0.05653092	      0.01000000	      0.05108868	      0.01000000	      0.03772220	      0.01000000	      0.01000000	      0.01000000	      0.01000000	      0.01000000	      0.01000000	      0.01000000	      0.01000000	      0.01000000	      0.04422772	      0.01000000	      0.01000000	      0.01000000	      0.05088860	      0.01000000	      0.05766588	      0.01000000	      0.03318426	      0.01000000	      0.01000000	      0.05086774	      0.01000000	      0.01000000	      0.07757407	      0.01000000	      0.22948903	      0.01000000	      0.06195621	      0.01000000	      0.02401564	      0.01000000	      0.04347402	      0.01000000	      0.04217401	      0.01000000	      0.13912158	      0.01000000	      0.13557878	      0.01000000	      0.13288675
      0.00136514	     20.00000000	     -0.00000000	     -0.00000000	      0.25000000	    -28.07807063	     -0.00000000	     -0.00000000	     -0.03599548	      0.54203483	     -0.00000000	    103.97523146	    -18.06457763	      0.47956091	    105.99754855	    105.99754855	     30.82226115	      0.00000000	      0.00000000	    103.97523174	    -18.06457428	      0.47956094	    105.99755052	    105.99755052	     30.82226129	     -0.00000000	      0.00000000	     -0.03143809	      0.00000000	      0.00000000	     89.94771280	     -0.00035338	     89.83323419	      0.15147892	      0.15068858	     -0.00000000	      0.00000000	     89.94776920	     -0.00035115	     89.82553449	      0.15147879	      0.15068860	     -0.00000000	      0.00000000	      0.00000000	     -0.00000000	      0.00000000	     -0.00000000	     36.50431503	     -0.00000440	     -0.00000069	      0.00661618	      0.05103741	     -0.00000001	    -36.29914528	     -2.35593395	      8.10548531	     -3.69005192	     -3.69005192	   -259.26818494	      0.00000000	      0.00000000	    -36.29914041	     -2.35593209	      8.10549587	     -3.69005080	     -3.69005080	   -259.26818662	     -0.00000000	      0.00000000	    -46.03787498	      0.00000559	      0.00000013	     10.28401883	     -0.47320526	     -0.31694732	      1.32430232	      0.22586934	     -0.00000000	      0.00000000	     10.28393671	     -0.47314614	     -0.31695583	      1.32410392	      0.22590310	     -0.00000000	      0.00000000	      0.01000000	      0.01000000	      0.10253954	      0.01000000	      0.01000000	      0.22479551	      0.01000000	      0.01000000	      0.01000000	      0.12259722	      0.01000000	      0.01000000	      0.05015073	      0.01000000	      0.05744334	      0.01000000	      0.04769920	      0.01000000	      0.05652877	      0.01000000	      0.05107968	      0.01000000	      0.03771432	      0.01000000	      0.01000000	      0.01000000	      0.01000000	      0.01000000	      0.01000000	      0.01000000	      0.01000000	      0.01000000	      0.04422505	      0.01000000	      0.01000000	      0.01000000	      0.05088663	      0.01000000	      0.05766379	      0.01000000	      0.03318269	      0.01000000	      0.01000000	      0.05086899	      0.01000000	      0.01000000	      0.07757284	      0.01000000	      0.22948403	      0.01000000	      0.06193405	      0.01000000	      0.02401564	      0.01000000	      0.04350886	      0.01000000	      0.04217289	      0.01000000	      0.13912120	      0.01000000	      0.13557844	      0.01000000	      0.13288642	      0.01000000	      0.01000000	      0.10253953	      0.01000000	      0.01000000	      0.22479551	      0.01000000	      0.01000000	      0.01000000	      0.12259722	      0.01000000	      0.01000000	      0.05015073	      0.01000000	      0.05744334	      0.01000000	      0.04769920	      0.01000000	      0.05652877	      0.01000000	      0.05107968	      0.01000000	      0.03771432	      0.01000000	      0.01000000	      0.01000000	      0.01000000	      0.01000000	      0.01000000	      0.01000000	      0.01000000	      0.01000000	      0.04422505	      0.01000000	      0.01000000	      0.01000000	      0.05088663	      0.01000000	      0.05766379	      0.01000000	      0.03318269	      0.01000000	      0.01000000	      0.05086899	      0.01000000	      0.01000000	      0.07757284	      0.01000000	      0.22948403	      0.01000000	      0.06193405	      0.01000000	      0.02401564	      0.01000000	      0.04350886	      0.01000000	      0.04217289	      0.01000000	      0.13912120	      0.01000000	      0.13557844	      0.01000000	      0.13288642
      0.00221907	     20.00000000	     -0.00000000	      0.00000000	      0.25000000	    -28.03717125	     -0.00000001	     -0.00000000	     -0.03598808	      0.54209206	     -0.00000000	    103.93449827	    -18.06721494	      0.48858425	    105.99329338	    105.99329338	     30.53330130	     -0.00000000	      0.00000000	    103.93449855	    -18.06721160	      0.48858429	    105.99329536	    105.99329536	     30.53330144	     -0.00000000	      0.00000000	     -0.08301956	      0.00000001	      0.00000000	     89.95923303	     -0.00088318	     89.83287977	      0.15296157	      0.15093950	     -0.00000000	      0.00000000	     89.95928933	     -0.00088089	     89.82518006	      0.15296122	      0.15093956	     -0.00000000	      0.00000000	     -0.00000000	     -0.00000000	      0.00000000	     -0.00000000	     59.27671032	     -0.00000712	     -0.00000111	      0.01071832	      0.08301034	     -0.00000001	    -59.11914568	     -3.81937733	     13.00102398	     -6.33512145	     -6.33512145	   -416.82328929	     -0.00000000	      0.00000000	    -59.11913780	     -3.81937431	     13.00104104	     -6.33511964	     -6.33511964	   -416.82329201	     -0.00000000	      0.00000000	    -74.75972436	      0.00000905	      0.00000022	     16.69453714	     -0.76741037	     -0.51285439	      2.14755347	      0.36107722	     -0.00000000	      0.00000000	     16.69440408	     -0.76731503	     -0.51286816	      2.14723329	      0.36113170	     -0.00000000	      0.00000000	      0.01000000	      0.01000000	      0.10253172	      0.01000000	      0.01000000	      0.22477564	      0.01000000	      0.01000000	      0.01000000	      0.12258987	      0.01000000	      0.01000000	      0.05023226	      0.01000000	      0.05755099	      0.01000000	      0.04769731	      0.01000000	      0.05652121	      0.01000000	      0.05104532	      0.01000000	      0.03768417	      0.01000000	      0.01000000	      0.01000000	      0.01000000	      0.01000000	      0.01000000	      0.01000000	      0.01000000	      0.01000000	      0.04421741	      0.01000000	      0.01000000	      0.01000000	      0.05088018	      0.01000000	      0.05765654	      0.01000000	      0.03317771	      0.01000000	      0.01000000	      0.05087337	      0.01000000	      0.01000000	      0.07756866	      0.01000000	      0.22947014	      0.01000000	      0.06186233	      0.01000000	      0.02401564	      0.01000000	      0.04365348	      0.01000000	      0.04216898	      0.01000000	      0.13912017	      0.01000000	      0.13557749	      0.01000000	      0.13288554	      0.01000000	      0.01000000	      0.10253172	      0.01000000	      0.01000000	      0.22477564	      0.01000000	      0.01000000	      0.01000000	      0.12258987	      0.01000000	      0.01000000	      0.05023226	      0.01000000	      0.05755099	      0.01000000	      0.04769731	      0.01000000	      0.05652121	      0.01000000	      0.05104532	      0.01000000	      0.03768417	      0.01000000	      0.01000000	      0.01000000	      0.01000000	      0.01000000	      0.01000000	      0.01000000	      0.01000000	      0.01000000	      0.04421741	      0.01000000	      0.01000000	      0.01000000	      0.05088018	      0.01000000	      0.05765654	      0.01000000	      0.03317771	      0.01000000	      0.01000000	      0.05087337	      0.01000000	      0.01000000	      0.07756866	      0.01000000	      0.22947014	      0.01000000	      0.06186233	      0.01000000	      0.02401564	      0.01000000	      0.04365348	      0.01000000	      0.04216898	      0.01000000	      0.13912017	      0.01000000	      0.13557749	      0.01000000	      0.13288554
